# xmcd
#
# Track frame offsets:
#	150
#	16566
#	34982
#	45725
#	66477
#	80120
#	92396
#	113547
#	133217
#	143869
#
# Disc length: 2100 seconds
#
# Revision: 0
# Processed by: cddbd v1.5.1PL2 Copyright (c) Steve Scherf et al.
# Submitted via: EasyCDDAExtractor 8.2.3.1
#
DISCID=8308320a
DTITLE=Doug And Jennifer Cassel - I Have A Shepherd
DYEAR=2005
DGENRE=Bluegrass
TTITLE0=Holy Spirit
TTITLE1=Great Things Can Be Done
TTITLE2=Our Dream For You
TTITLE3=The Centurion
TTITLE4=Til Death Do We Part
TTITLE5=I Kneel My Heart
TTITLE6=My Father's The Captain
TTITLE7=I Have A Shepherd
TTITLE8=Everything Is Alright
TTITLE9=A Family Reunion
EXTD=
EXTT0=
EXTT1=
EXTT2=
EXTT3=
EXTT4=
EXTT5=
EXTT6=
EXTT7=
EXTT8=
EXTT9=
PLAYORDER=
